HIERARCHY
ROOT hip
{
  OFFSET 0 0 0
  CHANNELS 6 Xposition Yposition Zposition Zrotation Yrotation Xrotation
  JOINT abdomen
  {
    OFFSET 0 20.6881 -0.73152
    CHANNELS 3 Zrotation Xrotation Yrotation
    JOINT chest
    {
      OFFSET 0 11.7043 -0.48768
      CHANNELS 3 Zrotation Xrotation Yrotation
      JOINT neck
      {
        OFFSET 0 22.1894 -2.19456
        CHANNELS 3 Zrotation Xrotation Yrotation
        JOINT head
        {
          OFFSET -0.24384 7.07133 1.2192
          CHANNELS 3 Zrotation Xrotation Yrotation
          JOINT leftEye
          {
            OFFSET 4.14528 8.04674 8.04672
            CHANNELS 3 Zrotation Xrotation Yrotation
            End Site
            {
              OFFSET 1 0 0
            }
          }
          JOINT rightEye
          {
            OFFSET -3.6576 8.04674 8.04672
            CHANNELS 3 Zrotation Xrotation Yrotation
            End Site
            {
              OFFSET 1 0 0
            }
          }
        }
      }
      JOINT rCollar
      {
        OFFSET -2.68224 19.2634 -4.8768
        CHANNELS 3 Zrotation Xrotation Yrotation
        JOINT rShldr
        {
          OFFSET -8.77824 -1.95073 1.46304
          CHANNELS 3 Zrotation Xrotation Yrotation
          JOINT rForeArm
          {
            OFFSET -28.1742 -1.7115 0.48768
            CHANNELS 3 Zrotation Xrotation Yrotation
            JOINT rHand
            {
              OFFSET -22.5879 0.773209 7.07136
              CHANNELS 3 Zrotation Xrotation Yrotation
              JOINT rThumb1
              {
                OFFSET -1.2192 -0.487915 3.41376
                CHANNELS 3 Zrotation Xrotation Yrotation
                JOINT rThumb2
                {
                  OFFSET -3.37035 -0.52449 3.41376
                  CHANNELS 3 Zrotation Xrotation Yrotation
                  End Site
                  {
                    OFFSET -1.78271 -1.18214 1.43049
                  }
                }
              }
              JOINT rIndex1
              {
                OFFSET -7.75947 0.938293 5.60832
                CHANNELS 3 Zrotation Xrotation Yrotation
                JOINT rIndex2
                {
                  OFFSET -2.54057 -0.884171 1.56538
                  CHANNELS 3 Zrotation Xrotation Yrotation
                  End Site
                  {
                    OFFSET -1.62519 -0.234802 1.16502
                  }
                }
              }
              JOINT rMid1
              {
                OFFSET -8.24714 1.18213 3.41376
                CHANNELS 3 Zrotation Xrotation Yrotation
                JOINT rMid2
                {
                  OFFSET -3.10165 -0.590103 1.0647
                  CHANNELS 3 Zrotation Xrotation Yrotation
                  End Site
                  {
                    OFFSET -2.48547 -0.328903 0.83742
                  }
                }
              }
              JOINT rRing1
              {
                OFFSET -8.82822 0.546677 1.51678
                CHANNELS 3 Zrotation Xrotation Yrotation
                JOINT rRing2
                {
                  OFFSET -2.60934 -0.819778 -0.0198488
                  CHANNELS 3 Zrotation Xrotation Yrotation
                  End Site
                  {
                    OFFSET -2.33842 -0.294052 0.168128
                  }
                }
              }
              JOINT rPinky1
              {
                OFFSET -8.27202 -0.0477905 -0.4584
                CHANNELS 3 Zrotation Xrotation Yrotation
                JOINT rPinky2
                {
                  OFFSET -1.82734 -0.647385 -0.700984
                  CHANNELS 3 Zrotation Xrotation Yrotation
                  End Site
                  {
                    OFFSET -1.69225 -0.51767 -0.607171
                  }
                }
              }
            }
          }
        }
      }
      JOINT lCollar
      {
        OFFSET 2.68224 19.2634 -4.8768
        CHANNELS 3 Zrotation Xrotation Yrotation
        JOINT lShldr
        {
          OFFSET 8.77824 -1.95073 1.46304
          CHANNELS 3 Zrotation Xrotation Yrotation
          JOINT lForeArm
          {
            OFFSET 28.1742 -1.7115 0.48768
            CHANNELS 3 Zrotation Xrotation Yrotation
            JOINT lHand
            {
              OFFSET 22.5879 0.773209 7.07136
              CHANNELS 3 Zrotation Xrotation Yrotation
              JOINT lThumb1
              {
                OFFSET 1.2192 -0.487915 3.41376
                CHANNELS 3 Zrotation Xrotation Yrotation
                JOINT lThumb2
                {
                  OFFSET 3.37035 -0.52449 3.41376
                  CHANNELS 3 Zrotation Xrotation Yrotation
                  End Site
                  {
                    OFFSET 1.78271 -1.18214 1.43049
                  }
                }
              }
              JOINT lIndex1
              {
                OFFSET 7.75947 0.938293 5.60832
                CHANNELS 3 Zrotation Xrotation Yrotation
                JOINT lIndex2
                {
                  OFFSET 2.54057 -0.884171 1.56538
                  CHANNELS 3 Zrotation Xrotation Yrotation
                  End Site
                  {
                    OFFSET 1.62519 -0.234802 1.16502
                  }
                }
              }
              JOINT lMid1
              {
                OFFSET 8.24714 1.18213 3.41376
                CHANNELS 3 Zrotation Xrotation Yrotation
                JOINT lMid2
                {
                  OFFSET 3.10165 -0.590103 1.0647
                  CHANNELS 3 Zrotation Xrotation Yrotation
                  End Site
                  {
                    OFFSET 2.48547 -0.328903 0.83742
                  }
                }
              }
              JOINT lRing1
              {
                OFFSET 8.82822 0.546677 1.51678
                CHANNELS 3 Zrotation Xrotation Yrotation
                JOINT lRing2
                {
                  OFFSET 2.60934 -0.819778 -0.0198488
                  CHANNELS 3 Zrotation Xrotation Yrotation
                  End Site
                  {
                    OFFSET 2.33842 -0.294052 0.168128
                  }
                }
              }
              JOINT lPinky1
              {
                OFFSET 8.27202 -0.0477905 -0.4584
                CHANNELS 3 Zrotation Xrotation Yrotation
                JOINT lPinky2
                {
                  OFFSET 1.82734 -0.647385 -0.700984
                  CHANNELS 3 Zrotation Xrotation Yrotation
                  End Site
                  {
                    OFFSET 1.69225 -0.51767 -0.607171
                  }
                }
              }
            }
          }
        }
      }
    }
  }
  JOINT rButtock
  {
    OFFSET -8.77824 4.35084 1.2192
    CHANNELS 3 Zrotation Xrotation Yrotation
    JOINT rThigh
    {
      OFFSET 0 -1.70687 -2.19456
      CHANNELS 3 Zrotation Xrotation Yrotation
      JOINT rShin
      {
        OFFSET 0 -36.8199 0.73152
        CHANNELS 3 Zrotation Xrotation Yrotation
        JOINT rFoot
        {
          OFFSET 0.73152 -45.1104 -5.12064
          CHANNELS 3 Zrotation Xrotation Yrotation
          End Site
          {
            OFFSET -1.1221 -3.69964 12.103
          }
        }
      }
    }
  }
  JOINT lButtock
  {
    OFFSET 8.77824 4.35084 1.2192
    CHANNELS 3 Zrotation Xrotation Yrotation
    JOINT lThigh
    {
      OFFSET 0 -1.70687 -2.19456
      CHANNELS 3 Zrotation Xrotation Yrotation
      JOINT lShin
      {
        OFFSET 0 -36.8199 0.73152
        CHANNELS 3 Zrotation Xrotation Yrotation
        JOINT lFoot
        {
          OFFSET -0.73152 -45.1104 -5.12064
          CHANNELS 3 Zrotation Xrotation Yrotation
          End Site
          {
            OFFSET 1.1221 -3.69964 12.103
          }
        }
      }
    }
  }
}
MOTION
Frames:	7
Frame Time:	0.00833333
-3.0172 84.2564 37.6692 0.0 0.0 0.0 -1.24152 -0.00398117 -0.034079 -0.342495 -0.00249258 -0.0593274 1.33375e-14 -1.59028e-15 -1.61513e-16 3.93842e-14 3.18055e-15 -5.2181e-16 -0.0 0.0 0.0 -0.0 0.0 0.0 6.50922e-15 2.36833e-17 4.96962e-17 1.39154e-13 4.78326e-16 -3.97569e-16 2.36057e-12 -6.90777e-13 -9.22361e-14 2.70022e-11 7.83535e-13 -2.98972e-13 6.3698e-11 1.99966e-13 -8.42847e-13 1.10003e-10 3.4668e-13 -1.46385e-12 6.37029e-11 2.04351e-13 -8.55569e-13 7.73091 5.47488 0.417314 6.36974e-11 1.99878e-13 -8.42847e-13 2.90554 0.965183 0.102902 6.37071e-11 2.00474e-13 -8.45232e-13 10.2786 0.731801 0.0259123 6.3698e-11 1.99182e-13 -8.36486e-13 2.22167 -0.733487 -0.20892 6.61101e-15 2.11597e-17 -1.49089e-16 1.33263e-13 5.15598e-16 -2.38542e-15 2.35987e-12 7.16221e-13 -3.18055e-14 2.69847e-11 -6.34744e-13 -3.49861e-13 6.36622e-11 1.75163e-13 -8.46028e-13 1.09941e-10 3.05333e-13 -1.45033e-12 6.3654e-11 1.78509e-13 -8.36486e-13 -7.73091 5.47488 -0.417314 6.3661e-11 1.75726e-13 -8.46028e-13 -2.90554 0.965183 -0.102902 6.36511e-11 1.75726e-13 -8.42052e-13 -10.2786 0.731801 -0.0259123 6.36685e-11 1.75726e-13 -8.49208e-13 -2.22167 -0.733487 0.20892 -2.03217e-16 0.0 -3.88251e-19 -0.453774 -1.92099 -0.00952823 -0.00915609 -2.07857 -0.0755565 -0.487523 3.99699 0.136663 2.03217e-16 0.0 3.88251e-19 -1.43721 -5.97116 0.129659 -0.00126465 5.25797 -0.0454176 0.507756 0.710738 -0.0722668
-3.78551 84.2462 37.5207 -2.5877 -1.7083 -2.6312 -0.642472 1.49964 0.222175 -0.371687 -1.72576 0.0264624 -0.376187 1.41072 -0.582346 1.07166 0.982998 -1.12084 -0.0 0.0 0.0 -0.0 0.0 0.0 3.24905e-14 -5.89941e-15 -3.5921e-15 23.6368 4.72667 -4.33593 -6.45639 -3.5778 9.28666 0.0408698 4.48699 0.623641 -8.8234e-11 1.67544e-10 -1.09015e-10 -1.53386e-10 2.89821e-10 -1.86198e-10 -8.82285e-11 1.67546e-10 -1.09027e-10 7.73091 5.47488 0.417314 -8.82353e-11 1.67542e-10 -1.09015e-10 2.90554 0.965183 0.102902 -8.82247e-11 1.67542e-10 -1.09019e-10 10.2786 0.731801 0.0259123 -8.82349e-11 1.67542e-10 -1.0901e-10 2.22167 -0.733487 -0.20892 3.25523e-14 -5.90189e-15 -3.82272e-15 -23.4108 6.20251 2.71185 5.75005 -3.01242 -8.50438 -0.00266806 1.15208 -0.161798 -1.52723e-10 -1.62142e-10 -1.76756e-10 -2.64785e-10 -2.80226e-10 -3.04846e-10 -1.52728e-10 -1.62137e-10 -1.76744e-10 -7.73091 5.47488 -0.417314 -1.52723e-10 -1.62139e-10 -1.76755e-10 -2.90554 0.965183 -0.102902 -1.52732e-10 -1.62139e-10 -1.76752e-10 -10.2786 0.731801 -0.0259123 -1.52717e-10 -1.6214e-10 -1.76759e-10 -2.22167 -0.733487 0.20892 -2.03217e-16 0.0 -3.88251e-19 -1.94789 0.705419 -0.533657 -0.0058084 -1.48014 -0.0529602 -0.480897 0.0450993 -2.07926 2.03217e-16 0.0 3.88251e-19 1.20989 -5.98207 -0.732013 -0.00791189 10.4911 -0.166908 0.750328 -4.32783 2.64543
-3.81041 84.2341 37.4882 -2.0659 -1.884 -2.4623 -0.0252333 3.08893 0.494758 -0.398162 -3.5468 0.117613 -0.74356 2.90288 -1.19981 2.25045 2.01837 -2.30803 -0.0 0.0 0.0 -0.0 0.0 0.0 6.25559e-14 -1.29845e-14 -6.79595e-15 49.4076 9.63079 -9.01645 -12.036 -7.04637 19.2173 -0.0234145 9.23202 1.29624 -2.71418e-10 3.72335e-10 -2.35078e-10 -4.7097e-10 6.44042e-10 -4.01362e-10 -2.71412e-10 3.72335e-10 -2.35088e-10 7.73091 5.47488 0.417314 -2.7142e-10 3.72332e-10 -2.35078e-10 2.90554 0.965183 0.102902 -2.71409e-10 3.72331e-10 -2.35083e-10 10.2786 0.731801 0.0259123 -2.7142e-10 3.72332e-10 -2.35073e-10 2.22167 -0.733487 -0.20892 6.2577e-14 -1.29869e-14 -7.06307e-15 -48.8118 12.6966 5.68649 10.8658 -5.97466 -17.5673 0.00162964 2.3838 -0.335006 -4.04387e-10 -3.64099e-10 -3.77791e-10 -7.00577e-10 -6.29282e-10 -6.51558e-10 -4.04388e-10 -3.64094e-10 -3.77776e-10 -7.73091 5.47488 -0.417314 -4.04385e-10 -3.64094e-10 -3.77789e-10 -2.90554 0.965183 -0.102902 -4.04394e-10 -3.64094e-10 -3.77787e-10 -10.2786 0.731801 -0.0259123 -4.04381e-10 -3.64097e-10 -3.77795e-10 -2.22167 -0.733487 0.20892 -2.03217e-16 0.0 -3.88251e-19 -3.47643 3.48339 -1.09091 -0.0027823 -0.847415 -0.0290901 -0.806419 -4.12134 -4.43261 2.03217e-16 0.0 3.88251e-19 4.00666 -5.99076 -1.64354 0.0101916 16.0229 -0.301499 1.532 -9.61864 5.58024
-3.80881 84.2279 37.4726 -1.8736 -1.9688 -2.3809 0.515164 4.50654 0.736733 -0.414543 -5.17226 0.198816 -1.04235 4.23039 -1.75128 3.33042 2.94448 -3.36648 -0.0 0.0 0.0 -0.0 0.0 0.0 8.44531e-14 -1.77456e-14 -1.08757e-14 73.0902 13.8508 -13.3588 -16.0018 -9.60716 28.2358 -0.177406 13.4545 1.91784 -3.92098e-10 5.02231e-10 -3.2536e-10 -6.80164e-10 8.6877e-10 -5.55666e-10 -3.92091e-10 5.02229e-10 -3.25369e-10 7.73091 5.47488 0.417314 -3.92101e-10 5.02227e-10 -3.25359e-10 2.90554 0.965183 0.102902 -3.92088e-10 5.02226e-10 -3.25366e-10 10.2786 0.731801 0.0259123 -3.92101e-10 5.02228e-10 -3.25356e-10 2.22167 -0.733487 -0.20892 8.44349e-14 -1.7748e-14 -1.117e-14 -72.0679 18.4362 8.52863 14.6429 -8.24244 -25.7629 0.011546 3.45612 -0.486179 -5.85494e-10 -4.86776e-10 -5.28576e-10 -1.01424e-09 -8.41288e-10 -9.11638e-10 -5.85492e-10 -4.86769e-10 -5.28559e-10 -7.73091 5.47488 -0.417314 -5.8549e-10 -4.86768e-10 -5.28574e-10 -2.90554 0.965183 -0.102902 -5.85498e-10 -4.86769e-10 -5.28573e-10 -10.2786 0.731801 -0.0259123 -5.85488e-10 -4.86772e-10 -5.2858e-10 -2.22167 -0.733487 0.20892 -2.03217e-16 0.0 -3.88251e-19 -4.79142 5.95604 -1.59039 -0.000528561 -0.283268 -0.00781422 -1.38821 -7.80762 -6.57164 2.03217e-16 0.0 3.88251e-19 6.50313 -5.99984 -2.45545 0.0498755 20.9568 -0.430371 2.70203 -14.2734 8.31663
-3.81434 84.2297 37.4637 -1.8269 -1.9769 -2.3336 0.892319 5.49529 0.9002 -0.416728 -6.30878 0.254369 -1.23086 5.14795 -2.13371 4.08212 3.60172 -4.0994 -0.0 0.0 0.0 -0.0 0.0 0.0 8.59298e-14 -1.66967e-14 -1.71452e-14 90.0037 16.6732 -16.5218 -18.264 -10.9733 34.6151 -0.340662 16.3769 2.36709 -3.56516e-10 4.44893e-10 -3.26188e-10 -6.18383e-10 7.69771e-10 -5.57821e-10 -3.5651e-10 4.44889e-10 -3.26198e-10 7.73091 5.47488 0.417314 -3.56519e-10 4.44888e-10 -3.26188e-10 2.90554 0.965183 0.102902 -3.56507e-10 4.44887e-10 -3.26195e-10 10.2786 0.731801 0.0259123 -3.5652e-10 4.44889e-10 -3.26185e-10 2.22167 -0.733487 -0.20892 8.58755e-14 -1.66991e-14 -1.74434e-14 -88.648 22.4513 10.6707 16.8796 -9.53072 -31.5523 0.0209659 4.13004 -0.581457 -5.90209e-10 -4.11249e-10 -5.53738e-10 -1.02257e-09 -7.10666e-10 -9.55141e-10 -5.90205e-10 -4.11243e-10 -5.53719e-10 -7.73091 5.47488 -0.417314 -5.90204e-10 -4.11241e-10 -5.53735e-10 -2.90554 0.965183 -0.102902 -5.90212e-10 -4.11242e-10 -5.53734e-10 -10.2786 0.731801 -0.0259123 -5.90203e-10 -4.11245e-10 -5.53741e-10 -2.22167 -0.733487 0.20892 -2.03217e-16 0.0 -3.88251e-19 -5.67562 7.66764 -1.93611 0.000793286 0.10944 0.00700184 -1.95975 -10.347 -8.10107 2.03217e-16 0.0 3.88251e-19 8.24929 -6.01277 -3.01831 0.0919374 24.3964 -0.527214 3.79731 -17.4643 10.3281
-3.82763 84.2311 37.4573 -1.8294 -1.9928 -2.3002 1.05242 5.88403 0.950435 -0.402581 -6.76072 0.272924 -1.29268 5.49238 -2.27645 4.33977 3.88464 -4.37356 -0.0 0.0 0.0 -0.0 0.0 0.0 5.09975e-14 -4.87703e-15 -3.00805e-14 96.7347 17.7641 -17.8055 -19.0502 -11.3965 37.1274 -0.415451 17.4751 2.54112 -2.9805e-11 3.53359e-11 -1.70023e-10 -5.18086e-11 6.18784e-11 -2.93247e-10 -2.97985e-11 3.53315e-11 -1.70035e-10 7.73091 5.47488 0.417314 -2.98068e-11 3.53306e-11 -1.70024e-10 2.90554 0.965183 0.102902 -2.97955e-11 3.53291e-11 -1.70029e-10 10.2786 0.731801 0.0259123 -2.98097e-11 3.53312e-11 -1.70021e-10 2.22167 -0.733487 -0.20892 5.09012e-14 -4.87928e-15 -3.03418e-14 -95.2409 24.191 11.5627 17.6828 -9.96478 -33.8531 0.0231423 4.22072 -0.594327 -2.78856e-10 3.95136e-11 -3.58472e-10 -4.83854e-10 6.86125e-11 -6.18641e-10 -2.78854e-10 3.95192e-11 -3.58451e-10 -7.73091 5.47488 -0.417314 -2.78852e-10 3.95197e-11 -3.58468e-10 -2.90554 0.965183 -0.102902 -2.78859e-10 3.95189e-11 -3.58467e-10 -10.2786 0.731801 -0.0259123 -2.7885e-10 3.95167e-11 -3.58473e-10 -2.22167 -0.733487 0.20892 -2.03217e-16 0.0 -3.88251e-19 -6.00399 8.31461 -2.05848 0.0012519 0.261772 0.0127678 -2.22086 -11.3205 -8.71182 2.03217e-16 0.0 3.88251e-19 8.94399 -6.03196 -3.23316 0.111642 25.7424 -0.567256 4.29771 -18.6987 11.1605
-3.85084 84.2328 37.4521 -1.8806 -2.0362 -2.2719 1.06037 5.84424 0.91949 -0.377949 -6.72369 0.26491 -1.27015 5.42778 -2.24719 4.23589 3.90111 -4.31927 -0.0 0.0 0.0 -0.0 0.0 0.0 -9.56879e-15 1.45106e-14 -4.76058e-14 96.0235 17.6852 -17.6823 -18.9643 -11.3517 36.8453 -0.402845 17.272 2.50906 5.0141e-10 -6.21516e-10 9.67672e-11 8.6936e-10 -1.07352e-09 1.59289e-10 5.01416e-10 -6.2152e-10 9.67525e-11 7.73091 5.47488 0.417314 5.0141e-10 -6.21521e-10 9.67654e-11 2.90554 0.965183 0.102902 5.01419e-10 -6.21523e-10 9.67628e-11 10.2786 0.731801 0.0259123 5.01404e-10 -6.21521e-10 9.67682e-11 2.22167 -0.733487 -0.20892 -9.71083e-15 1.45084e-14 -4.78015e-14 -94.5312 24.3425 11.4747 17.6125 -9.93577 -33.636 0.0194359 3.89602 -0.548434 2.54969e-10 7.53647e-10 -7.87984e-12 4.39926e-10 1.30317e-09 -1.43673e-11 2.54968e-10 7.53651e-10 -7.85799e-12 -7.73091 5.47488 -0.417314 2.54971e-10 7.53649e-10 -7.87462e-12 -2.90554 0.965183 -0.102902 2.54965e-10 7.53649e-10 -7.87287e-12 -10.2786 0.731801 -0.0259123 2.54974e-10 7.53648e-10 -7.87723e-12 -2.22167 -0.733487 0.20892 -2.03217e-16 0.0 -3.88251e-19 -5.94574 8.20164 -2.01916 0.00119636 0.242425 0.0120697 -2.19012 -11.1883 -8.64682 2.03217e-16 0.0 3.88251e-19 8.88786 -6.05593 -3.19938 0.108832 25.5933 -0.563166 4.25239 -18.5637 11.1003
